<?xml version="1.0" encoding="iso-8859-1"?>
<!-- Generator: Adobe Illustrator 19.0.0, SVG Export Plug-In . SVG Version: 6.00 Build 0)  -->
<svg version="1.1" id="Capa_1" xmlns="http://www.w3.org/2000/svg" xmlns:xlink="http://www.w3.org/1999/xlink" x="0px" y="0px"
	 viewBox="0 0 512 512" style="enable-background:new 0 0 512 512;" xml:space="preserve">
<circle style="fill:#57A4FF;" cx="256" cy="256" r="256"/>
<path style="fill:#2488FF;" d="M512,256c0-9.799-0.57-19.464-1.642-28.977l-112.691-112.69l0,0h-13.86h-27.72v13.861l0,0l8.96,8.96
	l-13.773,13.773l-65.871-65.872l0,0l-19.602-19.602l-9.801-9.8l-13.914,13.914l-9.937,9.937l-5.551,5.551l9.8,9.8l12.671,12.671
	v14.909l0,0l11.502,11.502c-1.518-0.056-3.041-0.093-4.572-0.093c-23.073,0-44.651,6.4-63.058,17.517l-37.028-37.028h-41.581v41.581
	l37.028,37.028c-11.116,18.408-17.516,39.985-17.516,63.058c0,1.532,0.038,3.054,0.093,4.572l-11.502-11.502h-14.908l-22.472-22.472
	l-6.075,6.075l-13.526,13.526L55.652,256l9.8,9.8l19.602,19.602l0,0l65.871,65.871l-13.773,13.773l-8.96-8.96h-13.861l0,0v27.72
	v13.861l0,0l112.69,112.69C236.536,511.43,246.201,512,256,512C397.385,512,512,397.385,512,256z"/>
<circle style="fill:#005ECE;" cx="256" cy="256" r="122.157"/>
<path style="fill:#003F8A;" d="M256,133.843v244.313c67.465,0,122.157-54.692,122.157-122.157S323.465,133.843,256,133.843z"/>
<path style="fill:#FFFFFF;" d="M256,133.843c-67.357,0-122.157,54.8-122.157,122.157S188.643,378.156,256,378.156
	S378.156,323.357,378.156,256S323.357,133.843,256,133.843z M322.107,181.032c-1.937-3.652-4.021-7.151-6.206-10.431
	c-2.636-3.955-5.441-7.633-8.396-11.011c8.416,4.502,16.187,10.089,23.231,16.707C327.985,177.97,325.099,179.555,322.107,181.032z
	 M326.627,250.007H262.42v-41.718c18.664-0.676,37.011-4.296,53.372-10.529C322.245,213.49,325.971,231.448,326.627,250.007z
	 M262.42,195.439v-48.303c18.574,2.621,35.794,16.632,47.876,38.985C295.633,191.587,279.195,194.787,262.42,195.439z
	 M365.093,262.849c-1.454,23.176-10.386,45.497-25.358,63.341c-3.824-2.451-7.9-4.74-12.164-6.836
	c7.038-17.011,11.122-36.44,11.876-56.505L365.093,262.849L365.093,262.849z M262.42,303.711v-40.862h64.174
	c-0.741,18.255-4.453,35.918-10.801,51.393C299.433,308.008,281.085,304.387,262.42,303.711z M315.901,341.4
	c2.18-3.271,4.263-6.771,6.206-10.431c2.993,1.479,5.879,3.063,8.627,4.735c-7.044,6.618-14.816,12.206-23.231,16.708
	C310.459,349.033,313.264,345.355,315.901,341.4z M262.42,364.863v-48.303c16.775,0.652,33.213,3.852,47.876,9.318
	C298.217,348.231,280.994,362.242,262.42,364.863z M365.146,250.007h-25.669c-0.668-20.368-4.764-40.093-11.907-57.361
	c4.261-2.093,8.337-4.384,12.164-6.836C354.905,203.89,363.859,226.512,365.146,250.007z M172.556,262.849
	c0.752,20.063,4.835,39.491,11.874,56.504c-4.261,2.093-8.337,4.384-12.166,6.836c-14.97-17.843-23.904-40.163-25.357-63.34H172.556
	z M189.892,330.967c1.939,3.652,4.021,7.152,6.207,10.431c2.638,3.956,5.443,7.634,8.397,11.011
	c-8.417-4.502-16.189-10.09-23.234-16.709C184.011,334.03,186.898,332.445,189.892,330.967z M185.407,262.849h64.171v40.862
	c-18.664,0.676-37.011,4.295-53.372,10.528C189.859,298.763,186.146,281.104,185.407,262.849z M249.579,316.561v48.303
	c-18.576-2.622-35.797-16.632-47.876-38.987C216.366,320.412,232.804,317.212,249.579,316.561z M184.43,192.647
	c-7.145,17.267-11.24,36.992-11.907,57.361h-25.67c1.288-23.495,10.241-46.118,25.413-64.197
	C176.092,188.262,180.168,190.554,184.43,192.647z M249.579,208.289v41.718h-64.207c0.658-18.56,4.381-36.518,10.834-52.248
	C212.569,203.994,230.916,207.614,249.579,208.289z M196.099,170.601c-2.185,3.278-4.267,6.777-6.206,10.431
	c-2.991-1.477-5.878-3.062-8.628-4.735c7.044-6.618,14.818-12.206,23.233-16.708C201.541,162.967,198.736,166.645,196.099,170.601z
	 M249.579,147.137v48.303c-16.776-0.652-33.214-3.852-47.876-9.317C213.783,163.769,231.004,149.758,249.579,147.137z"/>
<g>
	<polygon style="fill:#003F8A;" points="285.402,85.054 265.8,65.453 256,55.652 246.2,65.453 226.598,85.054 236.398,94.855 
		249.07,82.184 249.07,122.435 262.93,122.435 262.93,82.184 275.602,94.855 	"/>
	<polygon style="fill:#003F8A;" points="285.402,426.946 265.8,446.547 256,456.348 246.2,446.547 226.598,426.946 236.398,417.145 
		249.07,429.816 249.07,389.565 262.93,389.565 262.93,429.816 275.602,417.145 	"/>
	<polygon style="fill:#003F8A;" points="426.946,285.402 446.547,265.8 456.348,256 446.547,246.2 426.946,226.598 417.145,236.398 
		429.816,249.07 389.565,249.07 389.565,262.93 429.816,262.93 417.145,275.602 	"/>
	<polygon style="fill:#003F8A;" points="85.054,285.402 65.453,265.8 55.652,256 65.453,246.2 85.054,226.598 94.855,236.398 
		82.184,249.07 122.435,249.07 122.435,262.93 82.184,262.93 94.855,275.602 	"/>
	<polygon style="fill:#003F8A;" points="397.667,155.914 397.667,128.193 397.667,114.333 383.807,114.333 356.086,114.333 
		356.086,128.193 374.006,128.193 345.544,156.655 355.345,166.456 383.807,137.994 383.807,155.914 	"/>
	<polygon style="fill:#003F8A;" points="155.914,397.667 128.193,397.667 114.333,397.667 114.333,383.807 114.333,356.086 
		128.193,356.086 128.193,374.006 156.655,345.544 166.456,355.345 137.994,383.807 155.914,383.807 	"/>
	<polygon style="fill:#003F8A;" points="114.333,155.914 114.333,128.193 114.333,114.333 128.193,114.333 155.914,114.333 
		155.914,128.193 137.994,128.193 166.456,156.655 156.655,166.456 128.193,137.994 128.193,155.914 	"/>
	<polygon style="fill:#003F8A;" points="356.086,397.667 383.807,397.667 397.667,397.667 397.667,383.807 397.667,356.086 
		383.807,356.086 383.807,374.006 355.345,345.544 345.544,355.345 374.006,383.807 356.086,383.807 	"/>
</g>
<g>
</g>
<g>
</g>
<g>
</g>
<g>
</g>
<g>
</g>
<g>
</g>
<g>
</g>
<g>
</g>
<g>
</g>
<g>
</g>
<g>
</g>
<g>
</g>
<g>
</g>
<g>
</g>
<g>
</g>
</svg>
